<?xml version="1.0"?>
<svg xmlns="http://www.w3.org/2000/svg" viewBox="0 0 64 64" width="512" height="512"><g id="Engineer"><path d="M27,26H5a2.006,2.006,0,0,0-2,2V42a2.006,2.006,0,0,0,2,2H27a2.006,2.006,0,0,0,2-2V28A2.006,2.006,0,0,0,27,26Z" style="fill:#78b9eb"/><rect x="6" y="55" width="52" height="6" style="fill:#acabb1"/><polygon points="61 51 61 55 58 55 6 55 3 55 3 51 9 51 23 51 33 51 38 51 46 51 54 51 59 51 61 51" style="fill:#787680"/><polygon points="23 48 23 51 9 51 9 48 13 48 19 48 23 48" style="fill:#898890"/><polygon points="19 44 19 48 13 48 13 44 13 36 19 36 19 44" style="fill:#acabb1"/><polygon points="51 35 52 42 46 41 51 35" style="fill:#1e81ce"/><polygon points="41 35 46 41 40 42 41 35" style="fill:#1e81ce"/><path d="M52,42l-1-7a8,8,0,0,1,8,8v8H46V41Z" style="fill:#5aaae7"/><path d="M40,42l6-1V51H33V43a8,8,0,0,1,8-8Z" style="fill:#3d9ae2"/><polygon points="51 35 46 41 41 35 51 35" style="fill:#ffdaaa"/><path d="M52,23v4a6,6,0,0,1-12,0V23Z" style="fill:#ffdaaa"/><path d="M44,13.09V19H39A5.99,5.99,0,0,1,44,13.09Z" style="fill:#ffb655"/><path d="M53,19H48V13.09a5.832,5.832,0,0,1,3.24,1.67A5.944,5.944,0,0,1,53,19Z" style="fill:#ffb655"/><path d="M53,19a2.015,2.015,0,0,1,2,2,2.006,2.006,0,0,1-2,2H39a2.015,2.015,0,0,1-2-2,2.006,2.006,0,0,1,2-2H53Z" style="fill:#ff9811"/><path d="M48,13.09V19H44V12a1,1,0,0,1,1-1h2a1,1,0,0,1,1,1Z" style="fill:#ffa733"/><rect x="6" y="55" width="52" height="2" style="fill:#898890"/><path d="M53,27V24a2.991,2.991,0,0,0,.946-5.832,6.885,6.885,0,0,0-1.995-4.111A6.79,6.79,0,0,0,49,12.306V12a2,2,0,0,0-2-2H45a2,2,0,0,0-2,2v.3a6.945,6.945,0,0,0-4.945,5.866A2.992,2.992,0,0,0,39,24v3a7,7,0,0,0,14,0ZM50.536,15.47A4.914,4.914,0,0,1,51.9,18H49V14.43A4.85,4.85,0,0,1,50.536,15.47ZM45,12h2v6H45Zm-2,2.432V18H40.1A4.952,4.952,0,0,1,43,14.432ZM38,21a1,1,0,0,1,1-1H53a1,1,0,0,1,0,2H39A1,1,0,0,1,38,21Zm8,11a5.006,5.006,0,0,1-5-5V24H51v3A5.006,5.006,0,0,1,46,32Z"/><path d="M61,50H60V43a9.01,9.01,0,0,0-9-9H41a9.01,9.01,0,0,0-9,9v7H24V48a1,1,0,0,0-1-1H20V45h7a3,3,0,0,0,3-3V28a3,3,0,0,0-3-3H5a3,3,0,0,0-3,3V42a3,3,0,0,0,3,3h7v2H9a1,1,0,0,0-1,1v2H3a1,1,0,0,0-1,1v4a1,1,0,0,0,1,1H5v5a1,1,0,0,0,1,1H58a1,1,0,0,0,1-1V56h2a1,1,0,0,0,1-1V51A1,1,0,0,0,61,50Zm-3-7v7H55V43H53v7H47V42.18l4.836.806a1,1,0,0,0,1.154-1.128l-.822-5.752A7.005,7.005,0,0,1,58,43Zm-7.184-2.211L47.885,40.3l2.443-2.933ZM48.864,36,46,39.437,43.136,36Zm-7.192,1.368L44.115,40.3l-2.931.488ZM34,43a7.006,7.006,0,0,1,5.832-6.894l-.822,5.752a1,1,0,0,0,1.154,1.128L45,42.18V50H39V43H37v7H34ZM5,43a1,1,0,0,1-1-1V28a1,1,0,0,1,1-1H27a1,1,0,0,1,1,1V42a1,1,0,0,1-1,1H20V36a1,1,0,0,0-1-1H13a1,1,0,0,0-1,1v7Zm9-6h4V47H14ZM10,49H22v1H10ZM57,60H7V56H57Zm3-6H4V52H60Z"/></g></svg>
